# xmcd
#
# Track frame offsets:
#	150
#	14085
#	33835
#	40635
#	61875
#	83820
#	98912
#	110095
#	119102
#	132232
#	139460
#	149977
#	160830
#	172055
#	182480
#	197375
#	211375
#	223295
#	236260
#	242700
#	256257
#	267872
#	278565
#	290312
#	301015
#	314777
#	324755
#
# Disc length: 4469 seconds
#
# Revision: 1
# Processed by: cddbd v1.4PL0 Copyright (c) Steve Scherf et al.
# Submitted via: audiograbber 1.82.02
#
DISCID=9611731b
DTITLE=Louis Jordan - The Best of Louis Jordan and his Tympany Five - Five Guys
DTITLE=Named Moe
DYEAR=1900
DGENRE=Blues
TTITLE0=Five Guys Named Moe
TTITLE1=Pistol Packin' Mama
TTITLE2=Jubilee Jingle Rap
TTITLE3=I Can't Get Started
TTITLE4=Rose Room
TTITLE5=Nagasaki
TTITLE6=End announcements and Jubilee theme: One O'Clock Jump
TTITLE7=Jumpin' At The Jubilee
TTITLE8=(I'm Gonna Move To The ) Outskirts Of Town
TTITLE9=The End Of My WOrry
TTITLE10=How High Am I?
TTITLE11=Hey Now, Let's Live
TTITLE12=Slender, Tender, and Tall
TTITLE13=(My Feet Are Killing Me, Marching In) The Infantry Blues
TTITLE14=Is You Or Is You Ain't (My Baby?)
TTITLE15=Caldonia (What Makes Your Big Head So Hard)
TTITLE16=Bahama Joe
TTITLE17=Nobody Buy Me
TTITLE18=Caldonia with opening announcements
TTITLE19=You Was Right, Baby!
TTITLE20=Ofay And Oxford Grey
TTITLE21=Reconversion Blues
TTITLE22=On The Atchison, Topeka And The Santa Fe
TTITLE23=End theme: Caldonia and announcements
TTITLE24=Is You Or Is You AIn't (My Baby?)
TTITLE25=Don't WOrry 'Bout That Mule
TTITLE26=Pinetop's Boogie Woogie
EXTD=
EXTT0=
EXTT1=
EXTT2=
EXTT3=
EXTT4=
EXTT5=
EXTT6=
EXTT7=
EXTT8=
EXTT9=
EXTT10=
EXTT11=
EXTT12=
EXTT13=
EXTT14=
EXTT15=
EXTT16=
EXTT17=
EXTT18=
EXTT19=
EXTT20=
EXTT21=
EXTT22=
EXTT23=
EXTT24=
EXTT25=
EXTT26=
PLAYORDER=
